# AST/ASF file generated using VICON BodyLanguage
# -----------------------------------------------
:version 1.10
:name VICON
:units
  mass 1.0
  length 0.45
  angle deg
:documentation
   .ast/.asf automatically generated from VICON data using
   VICON BodyBuilder and BodyLanguage model FoxedUp or BRILLIANT.MOD
:root
   order TX TY TZ RX RY RZ
   axis XYZ
   position 0 0 0  
   orientation 0 0 0 
:bonedata
  begin
     id 1 
     name lhipjoint
     direction 0.567725 -0.736092 0.368589 
     length 2.42353 
     axis 0 0 0  XYZ
  end
  begin
     id 2 
     name lfemur
     direction 0.34202 -0.939693 0  
     length 7.24894  
     axis 0 0 20  XYZ
    dof rx ry rz
    limits (-160.0 20.0)
           (-70.0 70.0)
           (-60.0 70.0)
  end
  begin
     id 3 
     name ltibia
     direction 0.34202 -0.939693 0   
     length 7.6997   
     axis 0 0 20   XYZ
    dof rx
    limits (-10.0 170.0)
  end
  begin
     id 4 
     name lfoot
     direction 0.100767 -0.276854 0.955614   
     length 2.37556   
     axis -90 7.62852e-016 20   XYZ
    dof rx rz
    limits (-45.0 90.0)
           (-70.0 20.0)
  end
  begin
     id 5 
     name ltoes
     direction 1.53592e-011 -4.21894e-011 1   
     length 1.18363   
     axis -90 7.62852e-016 20   XYZ
    dof rx
    limits (-90.0 20.0)
  end
  begin
     id 6 
     name rhipjoint
     direction -0.556459 -0.742938 0.372017   
     length 2.4012  
     axis 0 0 0  XYZ 
  end
  begin
     id 7 
     name rfemur
     direction -0.34202 -0.939693 0   
     length 7.5119   
     axis 0 0 -20   XYZ
    dof rx ry rz
    limits (-160.0 20.0)
           (-70.0 70.0)
           (-70.0 60.0)
  end
  begin
     id 8 
     name rtibia
     direction -0.34202 -0.939693 0   
     length 7.50155   
     axis 0 0 -20   XYZ
    dof rx
    limits (-10.0 170.0)
 end
 begin
     id 9 
     name rfoot
     direction -0.118427 -0.325376 0.938139   
     length 2.32487  
     axis -90 -7.62852e-016 -20   XYZ
    dof rx rz
    limits (-45.0 90.0)
           (-20.0 70.0)
  end
  begin
     id 10 
     name rtoes
     direction -1.53525e-011 -4.21868e-011 1   
     length 1.15233   
     axis -90 -7.62852e-016 -20   XYZ
    dof rx
    limits (-90.0 20.0)
  end
  begin
     id 11 
     name lowerback
     direction 0.0287568 0.999577 -0.00434502   
     length 2.15243   
     axis 0 0 0   XYZ
    dof rx ry rz
    limits (-20.0 45.0)
           (-30.0 30.0)
           (-30.0 30.0)
  end
  begin
     id 12 
     name upperback
     direction 0.0294009 0.99956 0.00404628   
     length 2.15427   
     axis 0 0 0   XYZ
    dof rx ry rz
    limits (-20.0 45.0)
           (-30.0 30.0)
           (-30.0 30.0)
  end
  begin
     id 13 
     name thorax
     direction 0.0151014 0.999868 0.0059419   
     length 2.14898   
     axis 0 0 0   XYZ
    dof rx ry rz
    limits (-20.0 45.0)
           (-30.0 30.0)
           (-30.0 30.0)
  end
  begin
     id 14 
     name lowerneck
     direction -0.0249197 0.989906 0.139515   
     length 1.6861   
     axis 0 0 0   XYZ
    dof rx ry rz
    limits (-20.0 45.0)
           (-30.0 30.0)
           (-30.0 30.0)
  end
  begin
     id 15 
     name upperneck
     direction 0.0438463 0.988795 -0.142693   
     length 1.71276   
     axis 0 0 0   XYZ
    dof rx ry rz
    limits (-20.0 45.0)
           (-30.0 30.0)
           (-30.0 30.0)
  end
  begin
     id 16
     name head
     direction 0.0148499 0.997845 -0.0639186  
     length 1.7209  
     axis 0 0 0   XYZ
    dof rx ry rz
    limits (-20.0 45.0)
           (-30.0 30.0)
           (-30.0 30.0)
  end
  begin
     id 17 
     name lclavicle
     direction 0.940298 0.323464 -0.105876  
     length 3.9048  
     axis 0 0 0   XYZ
    dof ry rz
    limits (-20.0 10.0)
           (0.0 20.0)
  end
  begin
     id 18 
     name lhumerus
     direction 1 -4.48954e-011 -4.9675e-028   
     length 4.6851   
     axis 180 -30 -90   XYZ
    dof rx ry rz
    limits (-60.0 90.0)
           (-90.0 90.0)
           (-90.0 90.0)
  end
  begin
     id 19
     name lradius
     direction 1 -4.48992e-011 -1.03359e-026   
     length 3.39626   
     axis 180 -30 -90   XYZ
    dof rx
    limits (-10.0 170.0)
  end
  begin
     id 20
     name lwrist
     direction 1 -4.48906e-011 -1.67336e-026   
     length 1.69813   
     axis 9.90442e-015 90 90   XYZ
    dof ry
    limits (-180.0 0.0)
 end
  begin
     id 21 
     name lhand
     direction 1 -4.49006e-011 -3.34673e-026   
     length 0.486078   
     axis 2.1355e-014 90 90   XYZ
    dof rx rz
    limits (-90.0 90.0)
           (-45.0 45.0)
  end
  begin
     id 22 
     name lfingers
     direction 1 -4.48992e-011 -6.69345e-026   
     length 0.391889   
     axis 4.27099e-014 90 90   XYZ
    dof rx
    limits (0.0 90.0)
  end
  begin
     id 23
     name lthumb
     direction 0.707107 -6.34926e-011 0.707107   
     length 0.562676   
     axis -90 45 2.85299e-015   XYZ
    dof rx rz
    limits (-45.0 45.0)
           (-45.0 45.0)
  end
  begin
     id 24 
     name rclavicle
     direction -0.882459 0.414895 -0.221648   
     length 3.44646  
     axis 0 0 0   XYZ 
    dof ry rz
    limits (-10.0 20.0)
           (-20.0 0.0)
  end
  begin
     id 25 
     name rhumerus
     direction -1 -4.48962e-011 -2.37984e-027  
     length 5.55576   
     axis 180 30 90   XYZ
    dof rx ry rz
    limits (-90.0 60.0)
           (-90.0 90.0)
           (-90.0 90.0)
  end
  begin
     id 26 
     name rradius
     direction -1 -4.48982e-011 -6.86791e-027   
     length 3.32774   
     axis 180 30 90   XYZ
    dof rx
    limits (-10.0 170.0)
  end
  begin
     id 27 
     name rwrist
     direction -1 -4.48961e-011 -1.67336e-026   
     length 1.66387   
     axis 9.90442e-015 -90 -90   XYZ
    dof ry
    limits (-180.0 0.0)
  end
  begin
     id 28
     name rhand
     direction -1 -4.4897e-011 -3.34673e-026   
     length 0.507628   
     axis 2.1355e-014 -90 -90   XYZ
    dof rx rz
    limits (-90.0 90.0)
           (-45.0 45.0)
  end
  begin
     id 29
     name rfingers
     direction -1 -4.48854e-011 -6.69345e-026   
     length 0.409263   
     axis 4.27099e-014 -90 -90   XYZ
    dof rx
    limits (0.0 90.0)
  end
  begin
     id 30
     name rthumb
     direction -0.707107 -6.34913e-011 0.707107   
     length 0.587622   
     axis -90 -45 -2.85299e-015   XYZ
    dof rx rz
    limits (-45.0 45.0)
           (-45.0 45.0)
  end
:hierarchy
  begin
    root lhipjoint rhipjoint lowerback
    lhipjoint lfemur
    lfemur ltibia
    ltibia lfoot
    lfoot ltoes
    rhipjoint rfemur
    rfemur rtibia
    rtibia rfoot
    rfoot rtoes
    lowerback upperback
    upperback thorax
    thorax lowerneck lclavicle rclavicle
    lowerneck upperneck
    upperneck head
    lclavicle lhumerus
    lhumerus lradius
    lradius lwrist
    lwrist lhand lthumb
    lhand lfingers
    rclavicle rhumerus
    rhumerus rradius
    rradius rwrist
    rwrist rhand rthumb
    rhand rfingers
  end

#!OML:ASF E:\motion texture\Top Level 1\Subject 1\Session 1\male.ASF
:FULLY-SPECIFIED
:DEGREES
1
root 39.9721 17.8798 6.25269 149.389 -81.2426 -139.238
lowerback -5.33784 -1.36994 3.45919
upperback -2.8378 -2.11303 2.93044
thorax 0.0583192 -1.12068 0.961538
lowerneck -16.4359 -7.79471 -11.0206
upperneck 18.9908 -9.69504 7.10257
head 9.61372 -4.62887 2.92946
rclavicle 5.21189e-015 9.54166e-015
rhumerus -28.0418 -2.42913 -82.3794
rradius 28.9422
rwrist 9.25626
rhand -12.3554 -25.524
rfingers 7.12502
rthumb 13.7145 -55.0521
lclavicle 5.21189e-015 9.54166e-015
lhumerus -32.5075 9.80864 81.2479
lradius 29.9566
lwrist -17.9874
lhand -1.02989 33.151
lfingers 7.12502
lthumb 24.6036 61.5898
rfemur -11.7833 3.6492 26.2648
rtibia 14.5887
rfoot -7.66189 -13.1348
rtoes 14.2138
lfemur -8.04878 -3.58613 -13.7333
ltibia 9.54128
lfoot -7.91718 8.9107
ltoes 1.23714
2
root 39.9707 17.8805 6.25293 149.39 -81.2722 -139.251
lowerback -5.45572 -1.38799 3.4435
upperback -2.77393 -2.14411 2.92142
thorax 0.189685 -1.13361 0.954587
lowerneck -16.3924 -7.79446 -11.0331
upperneck 18.8972 -9.69899 7.14893
head 9.57661 -4.6271 2.94839
rclavicle 1.41448e-014 -6.95746e-015
rhumerus -27.8898 -2.19692 -82.5275
rradius 29.0552
rwrist 9.15792
rhand -12.4791 -25.6051
rfingers 7.12502
rthumb 13.5953 -55.1412
lclavicle 1.41448e-014 -6.95746e-015
lhumerus -32.441 9.86136 81.2589
lradius 29.9392
lwrist -18.0036
lhand -1.053 33.21
lfingers 7.12502
lthumb 24.5814 61.6518
rfemur -11.7553 3.60719 26.2379
rtibia 14.5577
rfoot -7.61847 -13.1304
rtoes 14.2636
lfemur -8.02727 -3.62556 -13.76
ltibia 9.52445
lfoot -7.9244 8.92366
ltoes 1.25515
3
root 39.969 17.8804 6.25294 149.258 -81.2837 -139.113
lowerback -5.38107 -1.38283 3.40819
upperback -2.83736 -2.13102 2.95445
thorax 0.085517 -1.12897 1.01243
lowerneck -16.3849 -7.80563 -11.0561
upperneck 18.95 -9.70497 7.10759
head 9.59338 -4.63654 2.9368
rclavicle -1.69526e-014 -2.18663e-014
rhumerus -27.9179 -2.00332 -82.5674
rradius 29.1801
rwrist 9.08828
rhand -12.1229 -26.0129
rfingers 7.12502
rthumb 13.9386 -55.5257
lclavicle -1.69526e-014 -2.18663e-014
lhumerus -32.5505 9.86922 81.3181
lradius 29.9224
lwrist -18.0234
lhand -1.08352 33.3694
lfingers 7.12502
lthumb 24.5521 61.8152
rfemur -11.7472 3.61673 26.251
rtibia 14.5536
rfoot -7.63728 -13.1552
rtoes 14.0875
lfemur -8.02701 -3.63727 -13.7542
ltibia 9.51692
lfoot -7.88834 8.92937
ltoes 1.08225
4
root 39.9673 17.8806 6.25278 149.351 -81.2791 -139.203
lowerback -5.41967 -1.35344 3.4119
upperback -2.80682 -2.09379 2.92184
thorax 0.137356 -1.1092 0.977016
lowerneck -16.4622 -7.83821 -11.0138
upperneck 18.9607 -9.75509 7.11871
head 9.61448 -4.65324 2.92397
rclavicle 1.84559e-014 2.06736e-014
rhumerus -27.8228 -1.93272 -82.6699
rradius 29.2874
rwrist 9.02817
rhand -12.7175 -25.7085
rfingers 7.12502
rthumb 13.3655 -55.2598
lclavicle 1.84559e-014 2.06736e-014
lhumerus -32.4887 9.83 81.3253
lradius 29.8663
lwrist -18.0823
lhand -1.22109 33.4037
lfingers 7.12502
lthumb 24.4203 61.8674
rfemur -11.7431 3.64542 26.2432
rtibia 14.543
rfoot -7.61038 -13.1573
rtoes 14.3797
lfemur -8.01535 -3.63451 -13.7618
ltibia 9.50333
lfoot -7.88733 8.93524
ltoes 1.34271
5
root 39.9661 17.8809 6.25334 149.155 -81.3097 -138.997
lowerback -5.52066 -1.37612 3.42066
upperback -2.76257 -2.13174 2.93587
thorax 0.239035 -1.12665 0.980676
lowerneck -16.4602 -7.84216 -11.0862
upperneck 18.9049 -9.74936 7.17498
head 9.60112 -4.64915 2.9561
rclavicle -1.04983e-015 9.14409e-015
rhumerus -27.6887 -1.78758 -82.7365
rradius 29.37
rwrist 9.07081
rhand -12.3206 -25.8505
rfingers 7.12502
rthumb 13.748 -55.3763
lclavicle -1.04983e-015 9.14409e-015
lhumerus -32.4537 9.95825 81.3342
lradius 29.8122
lwrist -18.1258
lhand -1.2828 33.4406
lfingers 7.12502
lthumb 24.3611 61.9122
rfemur -11.7459 3.63879 26.2496
rtibia 14.5386
rfoot -7.64365 -13.2137
rtoes 14.23
lfemur -8.02943 -3.64886 -13.7555
ltibia 9.4981
lfoot -7.8887 8.90966
ltoes 1.32097
6
root 39.9645 17.881 6.25307 149.122 -81.3184 -138.967
lowerback -5.43337 -1.32712 3.44254
upperback -2.77013 -2.06045 2.88729
thorax 0.180614 -1.09153 0.925049
lowerneck -16.6478 -7.92933 -10.9878
upperneck 19.0016 -9.87201 7.13259
head 9.67374 -4.69833 2.901
rclavicle -5.25537e-015 -1.23246e-014
rhumerus -27.6536 -1.81598 -82.8021
rradius 29.44
rwrist 9.04952
rhand -12.2877 -25.8485
rfingers 7.12502
rthumb 13.7797 -55.3722
lclavicle -5.25537e-015 -1.23246e-014
lhumerus -32.4019 9.84094 81.3489
lradius 29.7299
lwrist -18.1647
lhand -12.778 20.05
lfingers 7.12502
lthumb 13.3072 49.6051
rfemur -11.7254 3.6451 26.2499
rtibia 14.5233
rfoot -7.60511 -13.2072
rtoes 14.3857
lfemur -8.01586 -3.6195 -13.7524
ltibia 9.49731
lfoot -7.90025 8.87098
ltoes 1.51914
7
root 39.9628 17.8807 6.25408 149.143 -81.3344 -138.99
lowerback -5.4188 -1.30897 3.43409
upperback -2.75849 -2.03453 2.87099
thorax 0.184435 -1.07808 0.91456
lowerneck -16.7532 -7.95339 -10.9518
upperneck 19.043 -9.90462 7.12929
head 9.70856 -4.7082 2.88586
rclavicle -1.0107e-014 -3.57812e-015
rhumerus -27.6025 -1.77663 -82.8498
rradius 29.5462
rwrist 9.0028
rhand -12.2355 -25.1354
rfingers 7.12502
rthumb 13.83 -54.6556
lclavicle -1.0107e-014 -3.57812e-015
lhumerus -32.3879 9.81647 81.3749
lradius 29.6743
lwrist -18.1732
lhand -12.7595 20.0702
lfingers 7.12502
lthumb 13.3251 49.6241
rfemur -11.7224 3.65789 26.232
rtibia 14.5282
rfoot -7.61986 -13.2284
rtoes 14.3709
lfemur -8.01096 -3.63687 -13.7749
ltibia 9.50413
lfoot -7.92214 8.86985
ltoes 1.23428
8
root 39.9622 17.8808 6.25395 148.92 -81.3482 -138.76
lowerback -5.27065 -1.33931 3.372
upperback -2.94242 -2.06299 2.95632
thorax -0.082263 -1.09794 1.04337
lowerneck -16.4704 -7.90401 -11.0719
upperneck 19.042 -9.83722 7.11051
head 9.65555 -4.69682 2.91712
rclavicle -8.19366e-015 -9.74045e-015
rhumerus -27.8698 -1.46913 -82.8215
rradius 29.6426
rwrist 8.93691
rhand -12.3402 -24.8085
rfingers 7.12502
rthumb 13.7292 -54.3356
lclavicle -8.19366e-015 -9.74045e-015
lhumerus -32.7884 10.0043 81.3665
lradius 29.6191
lwrist -18.2853
lhand -12.7458 19.9472
lfingers 7.12502
lthumb 13.3383 49.5003
rfemur -11.7209 3.63731 26.2591
rtibia 14.5287
rfoot -7.61166 -13.2482
rtoes 14.2757
lfemur -8.0259 -3.6265 -13.7505
ltibia 9.51215
lfoot -7.90191 8.84155
ltoes 1.23416
9
root 39.9618 17.8804 6.25385 148.842 -81.3372 -138.67
lowerback -5.41461 -1.30205 3.44092
upperback -2.82267 -2.02558 2.90197
thorax 0.116969 -1.07581 0.944453
lowerneck -16.5855 -7.94825 -11.0438
upperneck 18.9856 -9.90449 7.19048
head 9.66634 -4.71317 2.92684
rclavicle 1.62817e-014 -7.55382e-015
rhumerus -27.6324 -1.5134 -82.9165
rradius 29.6606
rwrist 8.92336
rhand -10.5072 -28.7562
rfingers 7.12502
rthumb 15.4951 -58.1553
lclavicle 1.62817e-014 -7.55382e-015
lhumerus -32.5607 9.9054 81.3657
lradius 29.4687
lwrist -18.2728
lhand -12.795 19.8983
lfingers 7.12502
lthumb 13.2908 49.4545
rfemur -11.7365 3.63113 26.2771
rtibia 14.5313
rfoot -7.61624 -13.2374
rtoes 14.2572
lfemur -8.04265 -3.62786 -13.7266
ltibia 9.51921
lfoot -7.92748 8.83786
ltoes 1.07342
10
root 39.9615 17.8805 6.25334 148.707 -81.3424 -138.534
lowerback -5.47268 -1.31072 3.46723
upperback -2.80738 -2.04202 2.89367
thorax 0.163647 -1.08363 0.918443
lowerneck -16.501 -7.9448 -11.0935
upperneck 18.9257 -9.90547 7.24738
head 9.63598 -4.71337 2.95701
rclavicle -2.35125e-014 -2.127e-014
rhumerus -27.5998 -1.37439 -82.9955
rradius 29.718
rwrist 8.87903
rhand -10.5845 -28.3666
rfingers 7.12502
rthumb 15.4207 -57.7714
lclavicle -2.35125e-014 -2.127e-014
lhumerus -32.6014 10.0487 81.2897
lradius 29.36
lwrist -18.3816
lhand -12.7929 19.8846
lfingers 7.12502
lthumb 13.2928 49.4406
rfemur -11.7351 3.6568 26.2935
rtibia 14.5363
rfoot -7.63614 -13.2598
rtoes 14.3019
lfemur -8.0518 -3.61789 -13.6998
ltibia 9.52908
lfoot -7.9262 8.79142
ltoes 1.37895
11
root 39.9601 17.8796 6.2538 148.592 -81.3594 -138.41
lowerback -5.55974 -1.30771 3.50599
upperback -2.78399 -2.04491 2.868
thorax 0.233796 -1.08435 0.867372
lowerneck -16.4841 -7.9524 -11.0786
upperneck 18.8536 -9.92832 7.30193
head 9.61209 -4.71718 2.97075
rclavicle 7.97002e-015 -2.50469e-014
rhumerus -27.5459 -1.31598 -83.0738
rradius 29.725
rwrist 8.82883
rhand -10.729 -28.1469
rfingers 7.12502
rthumb 15.2816 -57.5623
lclavicle 7.97002e-015 -2.50469e-014
lhumerus -32.6159 10.1531 81.2211
lradius 29.226
lwrist -18.5056
lhand -12.7733 19.9081
lfingers 7.12502
lthumb 13.3117 49.4629
rfemur -11.7246 3.62724 26.2979
rtibia 14.5128
rfoot -7.63024 -13.2728
rtoes 14.2559
lfemur -8.06411 -3.58139 -13.7
ltibia 9.55052
lfoot -7.93115 8.74124
ltoes 1.23751
12
root 39.9601 17.8789 6.253 148.483 -81.375 -138.29
lowerback -5.49003 -1.31891 3.47702
upperback -2.86826 -2.0537 2.89577
thorax 0.110216 -1.0914 0.91524
lowerneck -16.3388 -7.93509 -11.1277
upperneck 18.8739 -9.90857 7.2836
head 9.59242 -4.71841 2.97943
rclavicle 1.23371e-014 -1.25234e-014
rhumerus -27.6727 -1.18607 -83.0746
rradius 29.7826
rwrist 8.78233
rhand -11.0015 -27.4178
rfingers 7.12502
rthumb 15.0191 -56.8531
lclavicle 1.23371e-014 -1.25234e-014
lhumerus -32.8366 10.2919 81.1798
lradius 29.1423
lwrist -18.6154
lhand -12.6921 19.96
lfingers 7.12502
lthumb 13.39 49.5097
rfemur -11.745 3.61475 26.3058
rtibia 14.5393
rfoot -7.68866 -13.2843
rtoes 14.4029
lfemur -8.08482 -3.58958 -13.6867
ltibia 9.55827
lfoot -7.95083 8.72344
ltoes 1.2155
13
root 39.9604 17.8786 6.25232 148.304 -81.3987 -138.119
lowerback -5.58877 -1.32603 3.5094
upperback -2.81179 -2.07088 2.86935
thorax 0.220984 -1.09811 0.865156
lowerneck -16.2674 -7.92852 -11.1372
upperneck 18.788 -9.91197 7.34296
head 9.55353 -4.71602 3.00335
rclavicle -2.77926e-014 -2.18663e-014
rhumerus -27.5658 -1.2053 -83.1229
rradius 29.7568
rwrist 8.87628
rhand -10.9486 -27.3565
rfingers 7.12502
rthumb 15.07 -56.7879
lclavicle -2.77926e-014 -2.18663e-014
lhumerus -32.8234 10.3853 81.1059
lradius 29.0215
lwrist -18.6838
lhand -12.697 20.0161
lfingers 7.12502
lthumb 13.3853 49.5661
rfemur -11.7286 3.60363 26.3158
rtibia 14.5252
rfoot -7.65681 -13.2821
rtoes 14.2555
lfemur -8.10802 -3.55493 -13.6751
ltibia 9.61228
lfoot -8.00007 8.65993
ltoes 1.24753
14
root 39.9605 17.8783 6.2522 148.227 -81.4343 -138.036
lowerback -5.63313 -1.30006 3.53021
upperback -2.73021 -2.03962 2.8216
thorax 0.327486 -1.07971 0.803347
lowerneck -16.5635 -7.9977 -11.0436
upperneck 18.8224 -9.99897 7.35089
head 9.62353 -4.73944 2.96897
rclavicle 4.5969e-016 -9.54166e-015
rhumerus -27.4015 -1.33903 -83.1465
rradius 29.7391
rwrist 8.91128
rhand -10.9997 -27.1929
rfingers 7.12502
rthumb 15.0208 -56.6281
lclavicle 4.5969e-016 -9.54166e-015
lhumerus -32.663 10.4103 81.0669
lradius 28.8251
lwrist -18.7725
lhand -12.6962 19.9841
lfingers 7.12502
lthumb 13.3861 49.534
rfemur -11.7332 3.6046 26.3025
rtibia 14.5156
rfoot -7.67282 -13.3393
rtoes 14.2468
lfemur -8.13878 -3.53593 -13.6885
ltibia 9.65291
lfoot -8.01175 8.60131
ltoes 1.23892
